<?xml version="1.0" encoding="UTF-8" standalone="no"?>
<svg
   height="444.80mm"
   viewBox="0.0 0.0 190.40 444.80"
   width="190.40mm"
   version="1.1"
   id="svg976"
   sodipodi:docname="BasedBox.svg"
   inkscape:version="1.1 (c68e22c387, 2021-05-23)"
   xmlns:inkscape="http://www.inkscape.org/namespaces/inkscape"
   xmlns:sodipodi="http://sodipodi.sourceforge.net/DTD/sodipodi-0.dtd"
   xmlns="http://www.w3.org/2000/svg"
   xmlns:svg="http://www.w3.org/2000/svg"
   xmlns:rdf="http://www.w3.org/1999/02/22-rdf-syntax-ns#"
   xmlns:cc="http://creativecommons.org/ns#"
   xmlns:dc="http://purl.org/dc/elements/1.1/">
  <defs
     id="defs980" />
  <sodipodi:namedview
     id="namedview978"
     pagecolor="#ffffff"
     bordercolor="#666666"
     borderopacity="1.0"
     inkscape:pageshadow="2"
     inkscape:pageopacity="0.0"
     inkscape:pagecheckerboard="0"
     inkscape:document-units="mm"
     showgrid="false"
     inkscape:lockguides="true"
     inkscape:zoom="1.2904408"
     inkscape:cx="100.74077"
     inkscape:cy="359.95453"
     inkscape:window-width="1920"
     inkscape:window-height="1017"
     inkscape:window-x="-8"
     inkscape:window-y="-8"
     inkscape:window-maximized="1"
     inkscape:current-layer="svg976" />
  <!--
BasedBox - Fully closed box on a base


This box is more of a building block than a finished item.
Use a vector graphics program (like Inkscape) to add holes or adjust the base
plate. The width of the "brim" can also be adjusted with the **edge_width**
 parameter in the **Finger Joints Settings**.
 
See ClosedBox for variant without a base.



Created with Boxes.py (https://festi.info/boxes.py)
Creation date: 2022-03-08 11:40:10
Command line (remove spaces between dashes): boxes BasedBox - -FingerJoint_angle=90.0 - -FingerJoint_style=rectangular - -FingerJoint_surroundingspaces=2.0 - -FingerJoint_edge_width=1.0 - -FingerJoint_extra_length=0.0 - -FingerJoint_finger=2.0 - -FingerJoint_play=0.0 - -FingerJoint_space=2.0 - -FingerJoint_width=1.0 - -x=80 - -y=80 - -h=160 - -outside=0 - -outside=1 - -thickness=4 - -format=svg - -tabs=0.0 - -debug=0 - -labels=0 - -labels=1 - -reference=100 - -burn=0.1
Url: http://festi.info/BasedBox?FingerJoint_angle=90.0&FingerJoint_style=rectangular&FingerJoint_surroundingspaces=2.0&FingerJoint_edge_width=1.0&FingerJoint_extra_length=0.0&FingerJoint_finger=2.0&FingerJoint_play=0.0&FingerJoint_space=2.0&FingerJoint_width=1.0&x=80&y=80&h=160&outside=0&outside=1&thickness=4&format=svg&tabs=0.0&debug=0&labels=0&labels=1&reference=100&burn=0.1&render=1
SettingsUrl: http://festi.info/BasedBox?FingerJoint_angle=90.0&FingerJoint_style=rectangular&FingerJoint_surroundingspaces=2.0&FingerJoint_edge_width=1.0&FingerJoint_extra_length=0.0&FingerJoint_finger=2.0&FingerJoint_play=0.0&FingerJoint_space=2.0&FingerJoint_width=1.0&x=80&y=80&h=160&outside=0&outside=1&thickness=4&format=svg&tabs=0.0&debug=0&labels=0&labels=1&reference=100&burn=0.1
-->
  <title
     id="title903">BasedBox</title>
  <metadata
     id="metadata905">
    <rdf:RDF>
      <cc:Work>
        <dc:title>Box - BasedBox</dc:title>
        <dc:date>2022-03-08 11:40:10</dc:date>
        <dc:source>http://festi.info/BasedBox?FingerJoint_angle=90.0&amp;FingerJoint_style=rectangular&amp;FingerJoint_surroundingspaces=2.0&amp;FingerJoint_edge_width=1.0&amp;FingerJoint_extra_length=0.0&amp;FingerJoint_finger=2.0&amp;FingerJoint_play=0.0&amp;FingerJoint_space=2.0&amp;FingerJoint_width=1.0&amp;x=80&amp;y=80&amp;h=160&amp;outside=0&amp;outside=1&amp;thickness=4&amp;format=svg&amp;tabs=0.0&amp;debug=0&amp;labels=0&amp;labels=1&amp;reference=100&amp;burn=0.1&amp;render=1</dc:source>
        <dc:description>Fully closed box on a base

This box is more of a building block than a finished item.
Use a vector graphics program (like Inkscape) to add holes or adjust the base
plate. The width of the &quot;brim&quot; can also be adjusted with the **edge_width**
 parameter in the **Finger Joints Settings**.
 
See ClosedBox for variant without a base.


Created with Boxes.py (https://festi.info/boxes.py)
Command line: boxes BasedBox --FingerJoint_angle=90.0 --FingerJoint_style=rectangular --FingerJoint_surroundingspaces=2.0 --FingerJoint_edge_width=1.0 --FingerJoint_extra_length=0.0 --FingerJoint_finger=2.0 --FingerJoint_play=0.0 --FingerJoint_space=2.0 --FingerJoint_width=1.0 --x=80 --y=80 --h=160 --outside=0 --outside=1 --thickness=4 --format=svg --tabs=0.0 --debug=0 --labels=0 --labels=1 --reference=100 --burn=0.1
Url: http://festi.info/BasedBox?FingerJoint_angle=90.0&amp;FingerJoint_style=rectangular&amp;FingerJoint_surroundingspaces=2.0&amp;FingerJoint_edge_width=1.0&amp;FingerJoint_extra_length=0.0&amp;FingerJoint_finger=2.0&amp;FingerJoint_play=0.0&amp;FingerJoint_space=2.0&amp;FingerJoint_width=1.0&amp;x=80&amp;y=80&amp;h=160&amp;outside=0&amp;outside=1&amp;thickness=4&amp;format=svg&amp;tabs=0.0&amp;debug=0&amp;labels=0&amp;labels=1&amp;reference=100&amp;burn=0.1&amp;render=1
SettingsUrl: http://festi.info/BasedBox?FingerJoint_angle=90.0&amp;FingerJoint_style=rectangular&amp;FingerJoint_surroundingspaces=2.0&amp;FingerJoint_edge_width=1.0&amp;FingerJoint_extra_length=0.0&amp;FingerJoint_finger=2.0&amp;FingerJoint_play=0.0&amp;FingerJoint_space=2.0&amp;FingerJoint_width=1.0&amp;x=80&amp;y=80&amp;h=160&amp;outside=0&amp;outside=1&amp;thickness=4&amp;format=svg&amp;tabs=0.0&amp;debug=0&amp;labels=0&amp;labels=1&amp;reference=100&amp;burn=0.1
</dc:description>
      </cc:Work>
    </rdf:RDF>
  </metadata>
  <g
     id="p-1"
     style="fill:none;stroke-linecap:round;stroke-linejoin:round">
    <text
       alignment-baseline="hanging"
       font-size="4px"
       style="font-style:normal;font-weight:normal;font-family:sans-serif;fill:#ff0000"
       text-anchor="middle"
       transform="translate(50.1,340.6)"
       id="text914">Wall 1</text>
    <path
       d="M 14.1,418.6 H 22 c 0.1,0 0,-0.1 0,0 v 3.9 c 0,0.055 0.045,0.1 0.1,0.1 h 8 c 0.055,0 0.1,-0.045 0.1,-0.1 v -3.9 c 0,-0.1 -0.1,0 0,0 H 38 c 0.1,0 0,-0.1 0,0 v 3.9 c 0,0.055 0.045,0.1 0.1,0.1 h 8 c 0.055,0 0.1,-0.045 0.1,-0.1 v -3.9 c 0,-0.1 -0.1,0 0,0 H 54 c 0.1,0 0,-0.1 0,0 v 3.9 c 0,0.055 0.045,0.1 0.1,0.1 h 8 c 0.055,0 0.1,-0.045 0.1,-0.1 v -3.9 c 0,-0.1 -0.1,0 0,0 H 70 c 0.1,0 0,-0.1 0,0 v 3.9 c 0,0.055 0.045,0.1 0.1,0.1 h 8 c 0.055,0 0.1,-0.045 0.1,-0.1 v -3.9 c 0,-0.1 -0.1,0 0,0 h 7.9 4 c 0.055,0 0.1,-0.045 0.1,-0.1 v -8 c 0,-0.055 -0.045,-0.1 -0.1,-0.1 h -3.9 c -0.1,0 0,0.1 0,0 v -7.8 c 0,-0.1 -0.1,0 0,0 h 3.9 c 0.055,0 0.1,-0.045 0.1,-0.1 v -8 c 0,-0.055 -0.045,-0.1 -0.1,-0.1 h -3.9 c -0.1,0 0,0.1 0,0 v -7.8 c 0,-0.1 -0.1,0 0,0 h 3.9 c 0.055,0 0.1,-0.045 0.1,-0.1 v -8 c 0,-0.055 -0.045,-0.1 -0.1,-0.1 h -3.9 c -0.1,0 0,0.1 0,0 v -7.8 c 0,-0.1 -0.1,0 0,0 h 3.9 c 0.055,0 0.1,-0.045 0.1,-0.1 v -8 c 0,-0.055 -0.045,-0.1 -0.1,-0.1 h -3.9 c -0.1,0 0,0.1 0,0 v -7.8 c 0,-0.1 -0.1,0 0,0 h 3.9 c 0.055,0 0.1,-0.045 0.1,-0.1 v -8 c 0,-0.055 -0.045,-0.1 -0.1,-0.1 h -3.9 c -0.1,0 0,0.1 0,0 v -7.8 c 0,-0.1 -0.1,0 0,0 h 3.9 c 0.055,0 0.1,-0.045 0.1,-0.1 v -8 c 0,-0.055 -0.045,-0.1 -0.1,-0.1 h -3.9 c -0.1,0 0,0.1 0,0 v -7.8 c 0,-0.1 -0.1,0 0,0 h 3.9 c 0.055,0 0.1,-0.045 0.1,-0.1 v -8 c 0,-0.055 -0.045,-0.1 -0.1,-0.1 h -3.9 c -0.1,0 0,0.1 0,0 v -7.8 c 0,-0.1 -0.1,0 0,0 h 3.9 c 0.055,0 0.1,-0.045 0.1,-0.1 v -8 c 0,-0.055 -0.045,-0.1 -0.1,-0.1 h -3.9 c -0.1,0 0,0.1 0,0 v -7.8 c 0,-0.1 -0.1,0 0,0 h 3.9 c 0.055,0 0.1,-0.045 0.1,-0.1 v -8 c 0,-0.055 -0.045,-0.1 -0.1,-0.1 h -3.9 c -0.1,0 0,0.1 0,0 v -7.8 c 0,-0.1 -0.1,0 0,0 h 3.9 c 0.055,0 0.1,-0.045 0.1,-0.1 v -8 -4 c 0,-0.055 -0.045,-0.1 -0.1,-0.1 h -4 -8 c -0.055,0 -0.1,0.045 -0.1,0.1 v 3.9 c 0,0.1 0.1,0 0,0 h -7.8 c -0.1,0 0,0.1 0,0 v -3.9 c 0,-0.055 -0.045,-0.1 -0.1,-0.1 h -8 c -0.055,0 -0.1,0.045 -0.1,0.1 v 3.9 c 0,0.1 0.1,0 0,0 h -7.8 c -0.1,0 0,0.1 0,0 v -3.9 c 0,-0.055 -0.045,-0.1 -0.1,-0.1 h -8 c -0.055,0 -0.1,0.045 -0.1,0.1 v 3.9 c 0,0.1 0.1,0 0,0 h -7.8 c -0.1,0 0,0.1 0,0 v -3.9 c 0,-0.055 -0.045,-0.1 -0.1,-0.1 h -8 c -0.055,0 -0.1,0.045 -0.1,0.1 v 3.9 c 0,0.1 0.1,0 0,0 h -7.8 c -0.1,0 0,0.1 0,0 v -3.9 c 0,-0.055 -0.045,-0.1 -0.1,-0.1 h -8 -4 c -0.055,0 -0.1,0.045 -0.1,0.1 v 4 8 c 0,0.055 0.045,0.1 0.1,0.1 H 14 c 0.1,0 0,-0.1 0,0 v 7.8 c 0,0.1 0.1,0 0,0 h -3.9 c -0.055,0 -0.1,0.045 -0.1,0.1 v 8 c 0,0.055 0.045,0.1 0.1,0.1 H 14 c 0.1,0 0,-0.1 0,0 v 7.8 c 0,0.1 0.1,0 0,0 h -3.9 c -0.055,0 -0.1,0.045 -0.1,0.1 v 8 c 0,0.055 0.045,0.1 0.1,0.1 H 14 c 0.1,0 0,-0.1 0,0 v 7.8 c 0,0.1 0.1,0 0,0 h -3.9 c -0.055,0 -0.1,0.045 -0.1,0.1 v 8 c 0,0.055 0.045,0.1 0.1,0.1 H 14 c 0.1,0 0,-0.1 0,0 v 7.8 c 0,0.1 0.1,0 0,0 h -3.9 c -0.055,0 -0.1,0.045 -0.1,0.1 v 8 c 0,0.055 0.045,0.1 0.1,0.1 H 14 c 0.1,0 0,-0.1 0,0 v 7.8 c 0,0.1 0.1,0 0,0 h -3.9 c -0.055,0 -0.1,0.045 -0.1,0.1 v 8 c 0,0.055 0.045,0.1 0.1,0.1 H 14 c 0.1,0 0,-0.1 0,0 v 7.8 c 0,0.1 0.1,0 0,0 h -3.9 c -0.055,0 -0.1,0.045 -0.1,0.1 v 8 c 0,0.055 0.045,0.1 0.1,0.1 H 14 c 0.1,0 0,-0.1 0,0 v 7.8 c 0,0.1 0.1,0 0,0 h -3.9 c -0.055,0 -0.1,0.045 -0.1,0.1 v 8 c 0,0.055 0.045,0.1 0.1,0.1 H 14 c 0.1,0 0,-0.1 0,0 v 7.8 c 0,0.1 0.1,0 0,0 h -3.9 c -0.055,0 -0.1,0.045 -0.1,0.1 v 8 c 0,0.055 0.045,0.1 0.1,0.1 H 14 c 0.1,0 0,-0.1 0,0 v 7.8 c 0,0.1 0.1,0 0,0 h -3.9 c -0.055,0 -0.1,0.045 -0.1,0.1 v 8 c 0,0.055 0.045,0.1 0.1,0.1 h 4"
       stroke="#000000"
       stroke-width="0.2"
       id="path916" />
  </g>
  <g
     id="p-2"
     style="fill:none;stroke-linecap:round;stroke-linejoin:round;">
    <text
       alignment-baseline="hanging"
       font-size="4px"
       style="font-family: sans-serif ; font-weight: normal; font-style: normal; fill: rgb(255,0,0)"
       text-anchor="middle"
       transform="matrix( 1.000 0.000 0.000 1.000 132.300 340.600 )"
       id="text919">Wall 2</text>
    <path
       d="M 96.300 418.600 H 104.200 C 104.300 418.600 104.200 418.500 104.200 418.600 V 422.500 C 104.200 422.555 104.245 422.600 104.300 422.600 H 112.300 C 112.355 422.600 112.400 422.555 112.400 422.500 V 418.600 C 112.400 418.500 112.300 418.600 112.400 418.600 H 120.200 C 120.300 418.600 120.200 418.500 120.200 418.600 V 422.500 C 120.200 422.555 120.245 422.600 120.300 422.600 H 128.300 C 128.355 422.600 128.400 422.555 128.400 422.500 V 418.600 C 128.400 418.500 128.300 418.600 128.400 418.600 H 136.200 C 136.300 418.600 136.200 418.500 136.200 418.600 V 422.500 C 136.200 422.555 136.245 422.600 136.300 422.600 H 144.300 C 144.355 422.600 144.400 422.555 144.400 422.500 V 418.600 C 144.400 418.500 144.300 418.600 144.400 418.600 H 152.200 C 152.300 418.600 152.200 418.500 152.200 418.600 V 422.500 C 152.200 422.555 152.245 422.600 152.300 422.600 H 160.300 C 160.355 422.600 160.400 422.555 160.400 422.500 V 418.600 C 160.400 418.500 160.300 418.600 160.400 418.600 H 168.300 C 168.355 418.600 168.400 418.555 168.400 418.500 V 410.600 C 168.400 410.500 168.300 410.600 168.400 410.600 H 172.300 C 172.355 410.600 172.400 410.555 172.400 410.500 V 402.500 C 172.400 402.445 172.355 402.400 172.300 402.400 H 168.400 C 168.300 402.400 168.400 402.500 168.400 402.400 V 394.600 C 168.400 394.500 168.300 394.600 168.400 394.600 H 172.300 C 172.355 394.600 172.400 394.555 172.400 394.500 V 386.500 C 172.400 386.445 172.355 386.400 172.300 386.400 H 168.400 C 168.300 386.400 168.400 386.500 168.400 386.400 V 378.600 C 168.400 378.500 168.300 378.600 168.400 378.600 H 172.300 C 172.355 378.600 172.400 378.555 172.400 378.500 V 370.500 C 172.400 370.445 172.355 370.400 172.300 370.400 H 168.400 C 168.300 370.400 168.400 370.500 168.400 370.400 V 362.600 C 168.400 362.500 168.300 362.600 168.400 362.600 H 172.300 C 172.355 362.600 172.400 362.555 172.400 362.500 V 354.500 C 172.400 354.445 172.355 354.400 172.300 354.400 H 168.400 C 168.300 354.400 168.400 354.500 168.400 354.400 V 346.600 C 168.400 346.500 168.300 346.600 168.400 346.600 H 172.300 C 172.355 346.600 172.400 346.555 172.400 346.500 V 338.500 C 172.400 338.445 172.355 338.400 172.300 338.400 H 168.400 C 168.300 338.400 168.400 338.500 168.400 338.400 V 330.600 C 168.400 330.500 168.300 330.600 168.400 330.600 H 172.300 C 172.355 330.600 172.400 330.555 172.400 330.500 V 322.500 C 172.400 322.445 172.355 322.400 172.300 322.400 H 168.400 C 168.300 322.400 168.400 322.500 168.400 322.400 V 314.600 C 168.400 314.500 168.300 314.600 168.400 314.600 H 172.300 C 172.355 314.600 172.400 314.555 172.400 314.500 V 306.500 C 172.400 306.445 172.355 306.400 172.300 306.400 H 168.400 C 168.300 306.400 168.400 306.500 168.400 306.400 V 298.600 C 168.400 298.500 168.300 298.600 168.400 298.600 H 172.300 C 172.355 298.600 172.400 298.555 172.400 298.500 V 290.500 C 172.400 290.445 172.355 290.400 172.300 290.400 H 168.400 C 168.300 290.400 168.400 290.500 168.400 290.400 V 282.600 C 168.400 282.500 168.300 282.600 168.400 282.600 H 172.300 C 172.355 282.600 172.400 282.555 172.400 282.500 V 274.500 C 172.400 274.445 172.355 274.400 172.300 274.400 H 168.400 C 168.300 274.400 168.400 274.500 168.400 274.400 V 266.500 V 262.500 C 168.400 262.445 168.355 262.400 168.300 262.400 H 160.300 C 160.245 262.400 160.200 262.445 160.200 262.500 V 266.400 C 160.200 266.500 160.300 266.400 160.200 266.400 H 152.400 C 152.300 266.400 152.400 266.500 152.400 266.400 V 262.500 C 152.400 262.445 152.355 262.400 152.300 262.400 H 144.300 C 144.245 262.400 144.200 262.445 144.200 262.500 V 266.400 C 144.200 266.500 144.300 266.400 144.200 266.400 H 136.400 C 136.300 266.400 136.400 266.500 136.400 266.400 V 262.500 C 136.400 262.445 136.355 262.400 136.300 262.400 H 128.300 C 128.245 262.400 128.200 262.445 128.200 262.500 V 266.400 C 128.200 266.500 128.300 266.400 128.200 266.400 H 120.400 C 120.300 266.400 120.400 266.500 120.400 266.400 V 262.500 C 120.400 262.445 120.355 262.400 120.300 262.400 H 112.300 C 112.245 262.400 112.200 262.445 112.200 262.500 V 266.400 C 112.200 266.500 112.300 266.400 112.200 266.400 H 104.400 C 104.300 266.400 104.400 266.500 104.400 266.400 V 262.500 C 104.400 262.445 104.355 262.400 104.300 262.400 H 96.300 C 96.245 262.400 96.200 262.445 96.200 262.500 V 266.500 V 274.400 C 96.200 274.500 96.300 274.400 96.200 274.400 H 92.300 C 92.245 274.400 92.200 274.445 92.200 274.500 V 282.500 C 92.200 282.555 92.245 282.600 92.300 282.600 H 96.200 C 96.300 282.600 96.200 282.500 96.200 282.600 V 290.400 C 96.200 290.500 96.300 290.400 96.200 290.400 H 92.300 C 92.245 290.400 92.200 290.445 92.200 290.500 V 298.500 C 92.200 298.555 92.245 298.600 92.300 298.600 H 96.200 C 96.300 298.600 96.200 298.500 96.200 298.600 V 306.400 C 96.200 306.500 96.300 306.400 96.200 306.400 H 92.300 C 92.245 306.400 92.200 306.445 92.200 306.500 V 314.500 C 92.200 314.555 92.245 314.600 92.300 314.600 H 96.200 C 96.300 314.600 96.200 314.500 96.200 314.600 V 322.400 C 96.200 322.500 96.300 322.400 96.200 322.400 H 92.300 C 92.245 322.400 92.200 322.445 92.200 322.500 V 330.500 C 92.200 330.555 92.245 330.600 92.300 330.600 H 96.200 C 96.300 330.600 96.200 330.500 96.200 330.600 V 338.400 C 96.200 338.500 96.300 338.400 96.200 338.400 H 92.300 C 92.245 338.400 92.200 338.445 92.200 338.500 V 346.500 C 92.200 346.555 92.245 346.600 92.300 346.600 H 96.200 C 96.300 346.600 96.200 346.500 96.200 346.600 V 354.400 C 96.200 354.500 96.300 354.400 96.200 354.400 H 92.300 C 92.245 354.400 92.200 354.445 92.200 354.500 V 362.500 C 92.200 362.555 92.245 362.600 92.300 362.600 H 96.200 C 96.300 362.600 96.200 362.500 96.200 362.600 V 370.400 C 96.200 370.500 96.300 370.400 96.200 370.400 H 92.300 C 92.245 370.400 92.200 370.445 92.200 370.500 V 378.500 C 92.200 378.555 92.245 378.600 92.300 378.600 H 96.200 C 96.300 378.600 96.200 378.500 96.200 378.600 V 386.400 C 96.200 386.500 96.300 386.400 96.200 386.400 H 92.300 C 92.245 386.400 92.200 386.445 92.200 386.500 V 394.500 C 92.200 394.555 92.245 394.600 92.300 394.600 H 96.200 C 96.300 394.600 96.200 394.500 96.200 394.600 V 402.400 C 96.200 402.500 96.300 402.400 96.200 402.400 H 92.300 C 92.245 402.400 92.200 402.445 92.200 402.500 V 410.500 C 92.200 410.555 92.245 410.600 92.300 410.600 H 96.200 C 96.300 410.600 96.200 410.500 96.200 410.600 V 418.500 C 96.200 418.555 96.245 418.600 96.300 418.600"
       stroke="rgb(0,0,0)"
       stroke-width="0.20"
       id="path921" />
  </g>
  <g
     id="p-3"
     style="fill:none;stroke-linecap:round;stroke-linejoin:round;">
    <text
       alignment-baseline="hanging"
       font-size="4px"
       style="font-family: sans-serif ; font-weight: normal; font-style: normal; fill: rgb(255,0,0)"
       text-anchor="middle"
       transform="matrix( 1.000 0.000 0.000 1.000 132.300 178.400 )"
       id="text924">Wall 4</text>
    <path
       d="M 96.300 256.400 H 104.200 C 104.300 256.400 104.200 256.300 104.200 256.400 V 260.300 C 104.200 260.355 104.245 260.400 104.300 260.400 H 112.300 C 112.355 260.400 112.400 260.355 112.400 260.300 V 256.400 C 112.400 256.300 112.300 256.400 112.400 256.400 H 120.200 C 120.300 256.400 120.200 256.300 120.200 256.400 V 260.300 C 120.200 260.355 120.245 260.400 120.300 260.400 H 128.300 C 128.355 260.400 128.400 260.355 128.400 260.300 V 256.400 C 128.400 256.300 128.300 256.400 128.400 256.400 H 136.200 C 136.300 256.400 136.200 256.300 136.200 256.400 V 260.300 C 136.200 260.355 136.245 260.400 136.300 260.400 H 144.300 C 144.355 260.400 144.400 260.355 144.400 260.300 V 256.400 C 144.400 256.300 144.300 256.400 144.400 256.400 H 152.200 C 152.300 256.400 152.200 256.300 152.200 256.400 V 260.300 C 152.200 260.355 152.245 260.400 152.300 260.400 H 160.300 C 160.355 260.400 160.400 260.355 160.400 260.300 V 256.400 C 160.400 256.300 160.300 256.400 160.400 256.400 H 168.300 C 168.355 256.400 168.400 256.355 168.400 256.300 V 248.400 C 168.400 248.300 168.300 248.400 168.400 248.400 H 172.300 C 172.355 248.400 172.400 248.355 172.400 248.300 V 240.300 C 172.400 240.245 172.355 240.200 172.300 240.200 H 168.400 C 168.300 240.200 168.400 240.300 168.400 240.200 V 232.400 C 168.400 232.300 168.300 232.400 168.400 232.400 H 172.300 C 172.355 232.400 172.400 232.355 172.400 232.300 V 224.300 C 172.400 224.245 172.355 224.200 172.300 224.200 H 168.400 C 168.300 224.200 168.400 224.300 168.400 224.200 V 216.400 C 168.400 216.300 168.300 216.400 168.400 216.400 H 172.300 C 172.355 216.400 172.400 216.355 172.400 216.300 V 208.300 C 172.400 208.245 172.355 208.200 172.300 208.200 H 168.400 C 168.300 208.200 168.400 208.300 168.400 208.200 V 200.400 C 168.400 200.300 168.300 200.400 168.400 200.400 H 172.300 C 172.355 200.400 172.400 200.355 172.400 200.300 V 192.300 C 172.400 192.245 172.355 192.200 172.300 192.200 H 168.400 C 168.300 192.200 168.400 192.300 168.400 192.200 V 184.400 C 168.400 184.300 168.300 184.400 168.400 184.400 H 172.300 C 172.355 184.400 172.400 184.355 172.400 184.300 V 176.300 C 172.400 176.245 172.355 176.200 172.300 176.200 H 168.400 C 168.300 176.200 168.400 176.300 168.400 176.200 V 168.400 C 168.400 168.300 168.300 168.400 168.400 168.400 H 172.300 C 172.355 168.400 172.400 168.355 172.400 168.300 V 160.300 C 172.400 160.245 172.355 160.200 172.300 160.200 H 168.400 C 168.300 160.200 168.400 160.300 168.400 160.200 V 152.400 C 168.400 152.300 168.300 152.400 168.400 152.400 H 172.300 C 172.355 152.400 172.400 152.355 172.400 152.300 V 144.300 C 172.400 144.245 172.355 144.200 172.300 144.200 H 168.400 C 168.300 144.200 168.400 144.300 168.400 144.200 V 136.400 C 168.400 136.300 168.300 136.400 168.400 136.400 H 172.300 C 172.355 136.400 172.400 136.355 172.400 136.300 V 128.300 C 172.400 128.245 172.355 128.200 172.300 128.200 H 168.400 C 168.300 128.200 168.400 128.300 168.400 128.200 V 120.400 C 168.400 120.300 168.300 120.400 168.400 120.400 H 172.300 C 172.355 120.400 172.400 120.355 172.400 120.300 V 112.300 C 172.400 112.245 172.355 112.200 172.300 112.200 H 168.400 C 168.300 112.200 168.400 112.300 168.400 112.200 V 104.300 V 100.300 C 168.400 100.245 168.355 100.200 168.300 100.200 H 160.300 C 160.245 100.200 160.200 100.245 160.200 100.300 V 104.200 C 160.200 104.300 160.300 104.200 160.200 104.200 H 152.400 C 152.300 104.200 152.400 104.300 152.400 104.200 V 100.300 C 152.400 100.245 152.355 100.200 152.300 100.200 H 144.300 C 144.245 100.200 144.200 100.245 144.200 100.300 V 104.200 C 144.200 104.300 144.300 104.200 144.200 104.200 H 136.400 C 136.300 104.200 136.400 104.300 136.400 104.200 V 100.300 C 136.400 100.245 136.355 100.200 136.300 100.200 H 128.300 C 128.245 100.200 128.200 100.245 128.200 100.300 V 104.200 C 128.200 104.300 128.300 104.200 128.200 104.200 H 120.400 C 120.300 104.200 120.400 104.300 120.400 104.200 V 100.300 C 120.400 100.245 120.355 100.200 120.300 100.200 H 112.300 C 112.245 100.200 112.200 100.245 112.200 100.300 V 104.200 C 112.200 104.300 112.300 104.200 112.200 104.200 H 104.400 C 104.300 104.200 104.400 104.300 104.400 104.200 V 100.300 C 104.400 100.245 104.355 100.200 104.300 100.200 H 96.300 C 96.245 100.200 96.200 100.245 96.200 100.300 V 104.300 V 112.200 C 96.200 112.300 96.300 112.200 96.200 112.200 H 92.300 C 92.245 112.200 92.200 112.245 92.200 112.300 V 120.300 C 92.200 120.355 92.245 120.400 92.300 120.400 H 96.200 C 96.300 120.400 96.200 120.300 96.200 120.400 V 128.200 C 96.200 128.300 96.300 128.200 96.200 128.200 H 92.300 C 92.245 128.200 92.200 128.245 92.200 128.300 V 136.300 C 92.200 136.355 92.245 136.400 92.300 136.400 H 96.200 C 96.300 136.400 96.200 136.300 96.200 136.400 V 144.200 C 96.200 144.300 96.300 144.200 96.200 144.200 H 92.300 C 92.245 144.200 92.200 144.245 92.200 144.300 V 152.300 C 92.200 152.355 92.245 152.400 92.300 152.400 H 96.200 C 96.300 152.400 96.200 152.300 96.200 152.400 V 160.200 C 96.200 160.300 96.300 160.200 96.200 160.200 H 92.300 C 92.245 160.200 92.200 160.245 92.200 160.300 V 168.300 C 92.200 168.355 92.245 168.400 92.300 168.400 H 96.200 C 96.300 168.400 96.200 168.300 96.200 168.400 V 176.200 C 96.200 176.300 96.300 176.200 96.200 176.200 H 92.300 C 92.245 176.200 92.200 176.245 92.200 176.300 V 184.300 C 92.200 184.355 92.245 184.400 92.300 184.400 H 96.200 C 96.300 184.400 96.200 184.300 96.200 184.400 V 192.200 C 96.200 192.300 96.300 192.200 96.200 192.200 H 92.300 C 92.245 192.200 92.200 192.245 92.200 192.300 V 200.300 C 92.200 200.355 92.245 200.400 92.300 200.400 H 96.200 C 96.300 200.400 96.200 200.300 96.200 200.400 V 208.200 C 96.200 208.300 96.300 208.200 96.200 208.200 H 92.300 C 92.245 208.200 92.200 208.245 92.200 208.300 V 216.300 C 92.200 216.355 92.245 216.400 92.300 216.400 H 96.200 C 96.300 216.400 96.200 216.300 96.200 216.400 V 224.200 C 96.200 224.300 96.300 224.200 96.200 224.200 H 92.300 C 92.245 224.200 92.200 224.245 92.200 224.300 V 232.300 C 92.200 232.355 92.245 232.400 92.300 232.400 H 96.200 C 96.300 232.400 96.200 232.300 96.200 232.400 V 240.200 C 96.200 240.300 96.300 240.200 96.200 240.200 H 92.300 C 92.245 240.200 92.200 240.245 92.200 240.300 V 248.300 C 92.200 248.355 92.245 248.400 92.300 248.400 H 96.200 C 96.300 248.400 96.200 248.300 96.200 248.400 V 256.300 C 96.200 256.355 96.245 256.400 96.300 256.400"
       stroke="rgb(0,0,0)"
       stroke-width="0.20"
       id="path926" />
  </g>
  <g
     id="p-4"
     style="fill:none;stroke-linecap:round;stroke-linejoin:round;">
    <text
       alignment-baseline="hanging"
       font-size="4px"
       style="font-family: sans-serif ; font-weight: normal; font-style: normal; fill: rgb(255,0,0)"
       text-anchor="middle"
       transform="matrix( 1.000 0.000 0.000 1.000 50.100 178.400 )"
       id="text929">Wall 3</text>
    <path
       d="M 14.100 256.400 H 22.000 C 22.100 256.400 22.000 256.300 22.000 256.400 V 260.300 C 22.000 260.355 22.045 260.400 22.100 260.400 H 30.100 C 30.155 260.400 30.200 260.355 30.200 260.300 V 256.400 C 30.200 256.300 30.100 256.400 30.200 256.400 H 38.000 C 38.100 256.400 38.000 256.300 38.000 256.400 V 260.300 C 38.000 260.355 38.045 260.400 38.100 260.400 H 46.100 C 46.155 260.400 46.200 260.355 46.200 260.300 V 256.400 C 46.200 256.300 46.100 256.400 46.200 256.400 H 54.000 C 54.100 256.400 54.000 256.300 54.000 256.400 V 260.300 C 54.000 260.355 54.045 260.400 54.100 260.400 H 62.100 C 62.155 260.400 62.200 260.355 62.200 260.300 V 256.400 C 62.200 256.300 62.100 256.400 62.200 256.400 H 70.000 C 70.100 256.400 70.000 256.300 70.000 256.400 V 260.300 C 70.000 260.355 70.045 260.400 70.100 260.400 H 78.100 C 78.155 260.400 78.200 260.355 78.200 260.300 V 256.400 C 78.200 256.300 78.100 256.400 78.200 256.400 H 86.100 H 90.100 C 90.155 256.400 90.200 256.355 90.200 256.300 V 248.300 C 90.200 248.245 90.155 248.200 90.100 248.200 H 86.200 C 86.100 248.200 86.200 248.300 86.200 248.200 V 240.400 C 86.200 240.300 86.100 240.400 86.200 240.400 H 90.100 C 90.155 240.400 90.200 240.355 90.200 240.300 V 232.300 C 90.200 232.245 90.155 232.200 90.100 232.200 H 86.200 C 86.100 232.200 86.200 232.300 86.200 232.200 V 224.400 C 86.200 224.300 86.100 224.400 86.200 224.400 H 90.100 C 90.155 224.400 90.200 224.355 90.200 224.300 V 216.300 C 90.200 216.245 90.155 216.200 90.100 216.200 H 86.200 C 86.100 216.200 86.200 216.300 86.200 216.200 V 208.400 C 86.200 208.300 86.100 208.400 86.200 208.400 H 90.100 C 90.155 208.400 90.200 208.355 90.200 208.300 V 200.300 C 90.200 200.245 90.155 200.200 90.100 200.200 H 86.200 C 86.100 200.200 86.200 200.300 86.200 200.200 V 192.400 C 86.200 192.300 86.100 192.400 86.200 192.400 H 90.100 C 90.155 192.400 90.200 192.355 90.200 192.300 V 184.300 C 90.200 184.245 90.155 184.200 90.100 184.200 H 86.200 C 86.100 184.200 86.200 184.300 86.200 184.200 V 176.400 C 86.200 176.300 86.100 176.400 86.200 176.400 H 90.100 C 90.155 176.400 90.200 176.355 90.200 176.300 V 168.300 C 90.200 168.245 90.155 168.200 90.100 168.200 H 86.200 C 86.100 168.200 86.200 168.300 86.200 168.200 V 160.400 C 86.200 160.300 86.100 160.400 86.200 160.400 H 90.100 C 90.155 160.400 90.200 160.355 90.200 160.300 V 152.300 C 90.200 152.245 90.155 152.200 90.100 152.200 H 86.200 C 86.100 152.200 86.200 152.300 86.200 152.200 V 144.400 C 86.200 144.300 86.100 144.400 86.200 144.400 H 90.100 C 90.155 144.400 90.200 144.355 90.200 144.300 V 136.300 C 90.200 136.245 90.155 136.200 90.100 136.200 H 86.200 C 86.100 136.200 86.200 136.300 86.200 136.200 V 128.400 C 86.200 128.300 86.100 128.400 86.200 128.400 H 90.100 C 90.155 128.400 90.200 128.355 90.200 128.300 V 120.300 C 90.200 120.245 90.155 120.200 90.100 120.200 H 86.200 C 86.100 120.200 86.200 120.300 86.200 120.200 V 112.400 C 86.200 112.300 86.100 112.400 86.200 112.400 H 90.100 C 90.155 112.400 90.200 112.355 90.200 112.300 V 104.300 V 100.300 C 90.200 100.245 90.155 100.200 90.100 100.200 H 86.100 H 78.100 C 78.045 100.200 78.000 100.245 78.000 100.300 V 104.200 C 78.000 104.300 78.100 104.200 78.000 104.200 H 70.200 C 70.100 104.200 70.200 104.300 70.200 104.200 V 100.300 C 70.200 100.245 70.155 100.200 70.100 100.200 H 62.100 C 62.045 100.200 62.000 100.245 62.000 100.300 V 104.200 C 62.000 104.300 62.100 104.200 62.000 104.200 H 54.200 C 54.100 104.200 54.200 104.300 54.200 104.200 V 100.300 C 54.200 100.245 54.155 100.200 54.100 100.200 H 46.100 C 46.045 100.200 46.000 100.245 46.000 100.300 V 104.200 C 46.000 104.300 46.100 104.200 46.000 104.200 H 38.200 C 38.100 104.200 38.200 104.300 38.200 104.200 V 100.300 C 38.200 100.245 38.155 100.200 38.100 100.200 H 30.100 C 30.045 100.200 30.000 100.245 30.000 100.300 V 104.200 C 30.000 104.300 30.100 104.200 30.000 104.200 H 22.200 C 22.100 104.200 22.200 104.300 22.200 104.200 V 100.300 C 22.200 100.245 22.155 100.200 22.100 100.200 H 14.100 H 10.100 C 10.045 100.200 10.000 100.245 10.000 100.300 V 104.300 V 112.300 C 10.000 112.355 10.045 112.400 10.100 112.400 H 14.000 C 14.100 112.400 14.000 112.300 14.000 112.400 V 120.200 C 14.000 120.300 14.100 120.200 14.000 120.200 H 10.100 C 10.045 120.200 10.000 120.245 10.000 120.300 V 128.300 C 10.000 128.355 10.045 128.400 10.100 128.400 H 14.000 C 14.100 128.400 14.000 128.300 14.000 128.400 V 136.200 C 14.000 136.300 14.100 136.200 14.000 136.200 H 10.100 C 10.045 136.200 10.000 136.245 10.000 136.300 V 144.300 C 10.000 144.355 10.045 144.400 10.100 144.400 H 14.000 C 14.100 144.400 14.000 144.300 14.000 144.400 V 152.200 C 14.000 152.300 14.100 152.200 14.000 152.200 H 10.100 C 10.045 152.200 10.000 152.245 10.000 152.300 V 160.300 C 10.000 160.355 10.045 160.400 10.100 160.400 H 14.000 C 14.100 160.400 14.000 160.300 14.000 160.400 V 168.200 C 14.000 168.300 14.100 168.200 14.000 168.200 H 10.100 C 10.045 168.200 10.000 168.245 10.000 168.300 V 176.300 C 10.000 176.355 10.045 176.400 10.100 176.400 H 14.000 C 14.100 176.400 14.000 176.300 14.000 176.400 V 184.200 C 14.000 184.300 14.100 184.200 14.000 184.200 H 10.100 C 10.045 184.200 10.000 184.245 10.000 184.300 V 192.300 C 10.000 192.355 10.045 192.400 10.100 192.400 H 14.000 C 14.100 192.400 14.000 192.300 14.000 192.400 V 200.200 C 14.000 200.300 14.100 200.200 14.000 200.200 H 10.100 C 10.045 200.200 10.000 200.245 10.000 200.300 V 208.300 C 10.000 208.355 10.045 208.400 10.100 208.400 H 14.000 C 14.100 208.400 14.000 208.300 14.000 208.400 V 216.200 C 14.000 216.300 14.100 216.200 14.000 216.200 H 10.100 C 10.045 216.200 10.000 216.245 10.000 216.300 V 224.300 C 10.000 224.355 10.045 224.400 10.100 224.400 H 14.000 C 14.100 224.400 14.000 224.300 14.000 224.400 V 232.200 C 14.000 232.300 14.100 232.200 14.000 232.200 H 10.100 C 10.045 232.200 10.000 232.245 10.000 232.300 V 240.300 C 10.000 240.355 10.045 240.400 10.100 240.400 H 14.000 C 14.100 240.400 14.000 240.300 14.000 240.400 V 248.200 C 14.000 248.300 14.100 248.200 14.000 248.200 H 10.100 C 10.045 248.200 10.000 248.245 10.000 248.300 V 256.300 C 10.000 256.355 10.045 256.400 10.100 256.400 H 14.100"
       stroke="rgb(0,0,0)"
       stroke-width="0.20"
       id="path931" />
  </g>
  <g
     id="p-5"
     style="fill:none;stroke-linecap:round;stroke-linejoin:round;">
    <text
       alignment-baseline="hanging"
       font-size="4px"
       style="font-family: sans-serif ; font-weight: normal; font-style: normal; fill: rgb(255,0,0)"
       text-anchor="middle"
       transform="matrix( 1.000 0.000 0.000 1.000 50.100 56.200 )"
       id="text934">Top</text>
    <path
       d="M 14.100 94.200 H 22.000 C 22.100 94.200 22.000 94.100 22.000 94.200 V 98.100 C 22.000 98.155 22.045 98.200 22.100 98.200 H 30.100 C 30.155 98.200 30.200 98.155 30.200 98.100 V 94.200 C 30.200 94.100 30.100 94.200 30.200 94.200 H 38.000 C 38.100 94.200 38.000 94.100 38.000 94.200 V 98.100 C 38.000 98.155 38.045 98.200 38.100 98.200 H 46.100 C 46.155 98.200 46.200 98.155 46.200 98.100 V 94.200 C 46.200 94.100 46.100 94.200 46.200 94.200 H 54.000 C 54.100 94.200 54.000 94.100 54.000 94.200 V 98.100 C 54.000 98.155 54.045 98.200 54.100 98.200 H 62.100 C 62.155 98.200 62.200 98.155 62.200 98.100 V 94.200 C 62.200 94.100 62.100 94.200 62.200 94.200 H 70.000 C 70.100 94.200 70.000 94.100 70.000 94.200 V 98.100 C 70.000 98.155 70.045 98.200 70.100 98.200 H 78.100 C 78.155 98.200 78.200 98.155 78.200 98.100 V 94.200 C 78.200 94.100 78.100 94.200 78.200 94.200 H 86.100 C 86.155 94.200 86.200 94.155 86.200 94.100 V 86.200 C 86.200 86.100 86.100 86.200 86.200 86.200 H 90.100 C 90.155 86.200 90.200 86.155 90.200 86.100 V 78.100 C 90.200 78.045 90.155 78.000 90.100 78.000 H 86.200 C 86.100 78.000 86.200 78.100 86.200 78.000 V 70.200 C 86.200 70.100 86.100 70.200 86.200 70.200 H 90.100 C 90.155 70.200 90.200 70.155 90.200 70.100 V 62.100 C 90.200 62.045 90.155 62.000 90.100 62.000 H 86.200 C 86.100 62.000 86.200 62.100 86.200 62.000 V 54.200 C 86.200 54.100 86.100 54.200 86.200 54.200 H 90.100 C 90.155 54.200 90.200 54.155 90.200 54.100 V 46.100 C 90.200 46.045 90.155 46.000 90.100 46.000 H 86.200 C 86.100 46.000 86.200 46.100 86.200 46.000 V 38.200 C 86.200 38.100 86.100 38.200 86.200 38.200 H 90.100 C 90.155 38.200 90.200 38.155 90.200 38.100 V 30.100 C 90.200 30.045 90.155 30.000 90.100 30.000 H 86.200 C 86.100 30.000 86.200 30.100 86.200 30.000 V 22.100 C 86.200 22.045 86.155 22.000 86.100 22.000 H 78.200 C 78.100 22.000 78.200 22.100 78.200 22.000 V 18.100 C 78.200 18.045 78.155 18.000 78.100 18.000 H 70.100 C 70.045 18.000 70.000 18.045 70.000 18.100 V 22.000 C 70.000 22.100 70.100 22.000 70.000 22.000 H 62.200 C 62.100 22.000 62.200 22.100 62.200 22.000 V 18.100 C 62.200 18.045 62.155 18.000 62.100 18.000 H 54.100 C 54.045 18.000 54.000 18.045 54.000 18.100 V 22.000 C 54.000 22.100 54.100 22.000 54.000 22.000 H 46.200 C 46.100 22.000 46.200 22.100 46.200 22.000 V 18.100 C 46.200 18.045 46.155 18.000 46.100 18.000 H 38.100 C 38.045 18.000 38.000 18.045 38.000 18.100 V 22.000 C 38.000 22.100 38.100 22.000 38.000 22.000 H 30.200 C 30.100 22.000 30.200 22.100 30.200 22.000 V 18.100 C 30.200 18.045 30.155 18.000 30.100 18.000 H 22.100 C 22.045 18.000 22.000 18.045 22.000 18.100 V 22.000 C 22.000 22.100 22.100 22.000 22.000 22.000 H 14.100 C 14.045 22.000 14.000 22.045 14.000 22.100 V 30.000 C 14.000 30.100 14.100 30.000 14.000 30.000 H 10.100 C 10.045 30.000 10.000 30.045 10.000 30.100 V 38.100 C 10.000 38.155 10.045 38.200 10.100 38.200 H 14.000 C 14.100 38.200 14.000 38.100 14.000 38.200 V 46.000 C 14.000 46.100 14.100 46.000 14.000 46.000 H 10.100 C 10.045 46.000 10.000 46.045 10.000 46.100 V 54.100 C 10.000 54.155 10.045 54.200 10.100 54.200 H 14.000 C 14.100 54.200 14.000 54.100 14.000 54.200 V 62.000 C 14.000 62.100 14.100 62.000 14.000 62.000 H 10.100 C 10.045 62.000 10.000 62.045 10.000 62.100 V 70.100 C 10.000 70.155 10.045 70.200 10.100 70.200 H 14.000 C 14.100 70.200 14.000 70.100 14.000 70.200 V 78.000 C 14.000 78.100 14.100 78.000 14.000 78.000 H 10.100 C 10.045 78.000 10.000 78.045 10.000 78.100 V 86.100 C 10.000 86.155 10.045 86.200 10.100 86.200 H 14.000 C 14.100 86.200 14.000 86.100 14.000 86.200 V 94.100 C 14.000 94.155 14.045 94.200 14.100 94.200"
       stroke="rgb(0,0,0)"
       stroke-width="0.20"
       id="path936" />
  </g>
  <g
     id="p-6"
     style="fill:none;stroke-linecap:round;stroke-linejoin:round;">
    <path
       d="M 112.300 94.000 H 108.400 C 108.300 94.000 108.400 94.100 108.400 94.000 V 90.200 C 108.400 90.100 108.300 90.200 108.400 90.200 H 116.200 C 116.300 90.200 116.200 90.100 116.200 90.200 V 94.000 C 116.200 94.100 116.300 94.000 116.200 94.000 H 112.300 Z"
       stroke="rgb(0,0,255)"
       stroke-width="0.20"
       id="path939" />
    <path
       d="M 128.300 94.000 H 124.400 C 124.300 94.000 124.400 94.100 124.400 94.000 V 90.200 C 124.400 90.100 124.300 90.200 124.400 90.200 H 132.200 C 132.300 90.200 132.200 90.100 132.200 90.200 V 94.000 C 132.200 94.100 132.300 94.000 132.200 94.000 H 128.300 Z"
       stroke="rgb(0,0,255)"
       stroke-width="0.20"
       id="path941" />
    <path
       d="M 144.300 94.000 H 140.400 C 140.300 94.000 140.400 94.100 140.400 94.000 V 90.200 C 140.400 90.100 140.300 90.200 140.400 90.200 H 148.200 C 148.300 90.200 148.200 90.100 148.200 90.200 V 94.000 C 148.200 94.100 148.300 94.000 148.200 94.000 H 144.300 Z"
       stroke="rgb(0,0,255)"
       stroke-width="0.20"
       id="path943" />
    <path
       d="M 160.300 94.000 H 156.400 C 156.300 94.000 156.400 94.100 156.400 94.000 V 90.200 C 156.400 90.100 156.300 90.200 156.400 90.200 H 164.200 C 164.300 90.200 164.200 90.100 164.200 90.200 V 94.000 C 164.200 94.100 164.300 94.000 164.200 94.000 H 160.300 Z"
       stroke="rgb(0,0,255)"
       stroke-width="0.20"
       id="path945" />
    <text
       alignment-baseline="hanging"
       font-size="4px"
       style="font-family: sans-serif ; font-weight: normal; font-style: normal; fill: rgb(255,0,0)"
       text-anchor="middle"
       transform="matrix( 1.000 0.000 0.000 1.000 136.300 52.200 )"
       id="text947">Base</text>
    <path
       d="M 100.300 98.200 H 172.300 H 180.300 C 180.355 98.200 180.400 98.155 180.400 98.100 V 90.100 V 18.100 V 10.100 C 180.400 10.045 180.355 10.000 180.300 10.000 H 172.300 H 100.300 H 92.300 C 92.245 10.000 92.200 10.045 92.200 10.100 V 18.100 V 90.100 V 98.100 C 92.200 98.155 92.245 98.200 92.300 98.200 H 100.300"
       stroke="rgb(0,0,0)"
       stroke-width="0.20"
       id="path949" />
    <path
       d="M 176.200 78.100 V 82.000 C 176.200 82.100 176.300 82.000 176.200 82.000 H 172.400 C 172.300 82.000 172.400 82.100 172.400 82.000 V 74.200 C 172.400 74.100 172.300 74.200 172.400 74.200 H 176.200 C 176.300 74.200 176.200 74.100 176.200 74.200 V 78.100 Z"
       stroke="rgb(0,0,255)"
       stroke-width="0.20"
       id="path951" />
    <path
       d="M 176.200 62.100 V 66.000 C 176.200 66.100 176.300 66.000 176.200 66.000 H 172.400 C 172.300 66.000 172.400 66.100 172.400 66.000 V 58.200 C 172.400 58.100 172.300 58.200 172.400 58.200 H 176.200 C 176.300 58.200 176.200 58.100 176.200 58.200 V 62.100 Z"
       stroke="rgb(0,0,255)"
       stroke-width="0.20"
       id="path953" />
    <path
       d="M 176.200 46.100 V 50.000 C 176.200 50.100 176.300 50.000 176.200 50.000 H 172.400 C 172.300 50.000 172.400 50.100 172.400 50.000 V 42.200 C 172.400 42.100 172.300 42.200 172.400 42.200 H 176.200 C 176.300 42.200 176.200 42.100 176.200 42.200 V 46.100 Z"
       stroke="rgb(0,0,255)"
       stroke-width="0.20"
       id="path955" />
    <path
       d="M 176.200 30.100 V 34.000 C 176.200 34.100 176.300 34.000 176.200 34.000 H 172.400 C 172.300 34.000 172.400 34.100 172.400 34.000 V 26.200 C 172.400 26.100 172.300 26.200 172.400 26.200 H 176.200 C 176.300 26.200 176.200 26.100 176.200 26.200 V 30.100 Z"
       stroke="rgb(0,0,255)"
       stroke-width="0.20"
       id="path957" />
    <path
       d="M 160.300 14.200 H 164.200 C 164.300 14.200 164.200 14.100 164.200 14.200 V 18.000 C 164.200 18.100 164.300 18.000 164.200 18.000 H 156.400 C 156.300 18.000 156.400 18.100 156.400 18.000 V 14.200 C 156.400 14.100 156.300 14.200 156.400 14.200 H 160.300 Z"
       stroke="rgb(0,0,255)"
       stroke-width="0.20"
       id="path959" />
    <path
       d="M 144.300 14.200 H 148.200 C 148.300 14.200 148.200 14.100 148.200 14.200 V 18.000 C 148.200 18.100 148.300 18.000 148.200 18.000 H 140.400 C 140.300 18.000 140.400 18.100 140.400 18.000 V 14.200 C 140.400 14.100 140.300 14.200 140.400 14.200 H 144.300 Z"
       stroke="rgb(0,0,255)"
       stroke-width="0.20"
       id="path961" />
    <path
       d="M 128.300 14.200 H 132.200 C 132.300 14.200 132.200 14.100 132.200 14.200 V 18.000 C 132.200 18.100 132.300 18.000 132.200 18.000 H 124.400 C 124.300 18.000 124.400 18.100 124.400 18.000 V 14.200 C 124.400 14.100 124.300 14.200 124.400 14.200 H 128.300 Z"
       stroke="rgb(0,0,255)"
       stroke-width="0.20"
       id="path963" />
    <path
       d="M 112.300 14.200 H 116.200 C 116.300 14.200 116.200 14.100 116.200 14.200 V 18.000 C 116.200 18.100 116.300 18.000 116.200 18.000 H 108.400 C 108.300 18.000 108.400 18.100 108.400 18.000 V 14.200 C 108.400 14.100 108.300 14.200 108.400 14.200 H 112.300 Z"
       stroke="rgb(0,0,255)"
       stroke-width="0.20"
       id="path965" />
    <path
       d="M 96.400 30.100 V 26.200 C 96.400 26.100 96.300 26.200 96.400 26.200 H 100.200 C 100.300 26.200 100.200 26.100 100.200 26.200 V 34.000 C 100.200 34.100 100.300 34.000 100.200 34.000 H 96.400 C 96.300 34.000 96.400 34.100 96.400 34.000 V 30.100 Z"
       stroke="rgb(0,0,255)"
       stroke-width="0.20"
       id="path967" />
    <path
       d="M 96.400 46.100 V 42.200 C 96.400 42.100 96.300 42.200 96.400 42.200 H 100.200 C 100.300 42.200 100.200 42.100 100.200 42.200 V 50.000 C 100.200 50.100 100.300 50.000 100.200 50.000 H 96.400 C 96.300 50.000 96.400 50.100 96.400 50.000 V 46.100 Z"
       stroke="rgb(0,0,255)"
       stroke-width="0.20"
       id="path969" />
    <path
       d="M 96.400 62.100 V 58.200 C 96.400 58.100 96.300 58.200 96.400 58.200 H 100.200 C 100.300 58.200 100.200 58.100 100.200 58.200 V 66.000 C 100.200 66.100 100.300 66.000 100.200 66.000 H 96.400 C 96.300 66.000 96.400 66.100 96.400 66.000 V 62.100 Z"
       stroke="rgb(0,0,255)"
       stroke-width="0.20"
       id="path971" />
    <path
       d="M 96.400 78.100 V 74.200 C 96.400 74.100 96.300 74.200 96.400 74.200 H 100.200 C 100.300 74.200 100.200 74.100 100.200 74.200 V 82.000 C 100.200 82.100 100.300 82.000 100.200 82.000 H 96.400 C 96.300 82.000 96.400 82.100 96.400 82.000 V 78.100 Z"
       stroke="rgb(0,0,255)"
       stroke-width="0.20"
       id="path973" />
  </g>
  <rect
     style="fill:none;stroke:#000000;stroke-width:0.376078"
     id="rect1164"
     width="31.623922"
     height="31.623922"
     x="132.55743"
     y="61.075485"
     transform="rotate(45)" />
  <rect
     style="fill:none;stroke:#000000;stroke-width:0.376078"
     id="rect1164-7"
     width="31.623922"
     height="31.623922"
     x="164.18135"
     y="92.699409"
     transform="rotate(45)" />
  <circle
     style="fill:none;stroke:#000000;stroke-width:0.401545"
     id="path1331"
     cx="34.120098"
     cy="72.008972"
     r="2.7992275" />
  <circle
     style="fill:none;stroke:#000000;stroke-width:0.401545"
     id="path1331-2"
     cx="67.866028"
     cy="72.008972"
     r="2.7992275" />
</svg>
