%TF.GenerationSoftware,KiCad,Pcbnew,(5.1.9)-1*%
%TF.CreationDate,2023-04-30T12:58:08+02:00*%
%TF.ProjectId,NANO_Bot,4e414e4f-5f42-46f7-942e-6b696361645f,rev?*%
%TF.SameCoordinates,Original*%
%TF.FileFunction,Copper,L1,Top*%
%TF.FilePolarity,Positive*%
%FSLAX46Y46*%
G04 Gerber Fmt 4.6, Leading zero omitted, Abs format (unit mm)*
G04 Created by KiCad (PCBNEW (5.1.9)-1) date 2023-04-30 12:58:08*
%MOMM*%
%LPD*%
G01*
G04 APERTURE LIST*
%TA.AperFunction,ComponentPad*%
%ADD10C,1.500000*%
%TD*%
%TA.AperFunction,ComponentPad*%
%ADD11R,1.600000X1.600000*%
%TD*%
%TA.AperFunction,ComponentPad*%
%ADD12O,1.600000X1.600000*%
%TD*%
%TA.AperFunction,ComponentPad*%
%ADD13C,2.000000*%
%TD*%
%TA.AperFunction,ComponentPad*%
%ADD14R,2.000000X2.000000*%
%TD*%
%TA.AperFunction,ViaPad*%
%ADD15C,0.800000*%
%TD*%
%TA.AperFunction,Conductor*%
%ADD16C,0.250000*%
%TD*%
G04 APERTURE END LIST*
D10*
%TO.P,LP_rund,1*%
%TO.N,Net-(A1-Pad27)*%
X111506000Y-344932000D03*
%TD*%
%TO.P,LP_rund,1*%
%TO.N,Net-(A1-Pad29)*%
X111506000Y-340360000D03*
%TD*%
%TO.P,LP_rund,1*%
%TO.N,Net-(A1-Pad16)*%
X116586000Y-344932000D03*
%TD*%
%TO.P,LP_rund,1*%
%TO.N,Net-(A1-Pad13)*%
X116586000Y-336296000D03*
%TD*%
%TO.P,LP_rund,1*%
%TO.N,Net-(A1-Pad12)*%
X116586000Y-332232000D03*
%TD*%
%TO.P,LP_rund,1*%
%TO.N,Net-(A1-Pad14)*%
X116586000Y-340360000D03*
%TD*%
%TO.P,LP_rund,1*%
%TO.N,Net-(A1-Pad11)*%
X116586000Y-328168000D03*
%TD*%
%TO.P,LP_rund,1*%
%TO.N,Net-(A1-Pad10)*%
X116586000Y-324394284D03*
%TD*%
%TO.P,LP_rund,1*%
%TO.N,Net-(A1-Pad29)*%
X111506000Y-332232000D03*
%TD*%
%TO.P,LP_rund,1*%
%TO.N,Net-(A1-Pad29)*%
X111506000Y-324394284D03*
%TD*%
D11*
%TO.P,A1,1*%
%TO.N,Net-(A1-Pad1)*%
X121951001Y-312695001D03*
D12*
%TO.P,A1,17*%
%TO.N,Net-(A1-Pad17)*%
X137191001Y-345715001D03*
%TO.P,A1,2*%
%TO.N,Net-(A1-Pad2)*%
X121951001Y-315235001D03*
%TO.P,A1,18*%
%TO.N,Net-(A1-Pad18)*%
X137191001Y-343175001D03*
%TO.P,A1,3*%
%TO.N,Net-(A1-Pad28)*%
X121951001Y-317775001D03*
%TO.P,A1,19*%
%TO.N,Net-(A1-Pad19)*%
X137191001Y-340635001D03*
%TO.P,A1,4*%
%TO.N,Net-(A1-Pad29)*%
X121951001Y-320315001D03*
%TO.P,A1,20*%
%TO.N,Net-(A1-Pad20)*%
X137191001Y-338095001D03*
%TO.P,A1,5*%
%TO.N,Net-(A1-Pad5)*%
X121951001Y-322855001D03*
%TO.P,A1,21*%
%TO.N,Net-(A1-Pad21)*%
X137191001Y-335555001D03*
%TO.P,A1,6*%
%TO.N,Net-(A1-Pad6)*%
X121951001Y-325395001D03*
%TO.P,A1,22*%
%TO.N,Net-(A1-Pad22)*%
X137191001Y-333015001D03*
%TO.P,A1,7*%
%TO.N,Net-(A1-Pad7)*%
X121951001Y-327935001D03*
%TO.P,A1,23*%
%TO.N,Net-(A1-Pad23)*%
X137191001Y-330475001D03*
%TO.P,A1,8*%
%TO.N,Net-(A1-Pad8)*%
X121951001Y-330475001D03*
%TO.P,A1,24*%
%TO.N,Net-(A1-Pad24)*%
X137191001Y-327935001D03*
%TO.P,A1,9*%
%TO.N,Net-(A1-Pad9)*%
X121951001Y-333015001D03*
%TO.P,A1,25*%
%TO.N,Net-(A1-Pad25)*%
X137191001Y-325395001D03*
%TO.P,A1,10*%
%TO.N,Net-(A1-Pad10)*%
X121951001Y-335555001D03*
%TO.P,A1,26*%
%TO.N,Net-(A1-Pad26)*%
X137191001Y-322855001D03*
%TO.P,A1,11*%
%TO.N,Net-(A1-Pad11)*%
X121951001Y-338095001D03*
%TO.P,A1,27*%
%TO.N,Net-(A1-Pad27)*%
X137191001Y-320315001D03*
%TO.P,A1,12*%
%TO.N,Net-(A1-Pad12)*%
X121951001Y-340635001D03*
%TO.P,A1,28*%
%TO.N,Net-(A1-Pad28)*%
X137191001Y-317775001D03*
%TO.P,A1,13*%
%TO.N,Net-(A1-Pad13)*%
X121951001Y-343175001D03*
%TO.P,A1,29*%
%TO.N,Net-(A1-Pad29)*%
X137191001Y-315235001D03*
%TO.P,A1,14*%
%TO.N,Net-(A1-Pad14)*%
X121951001Y-345715001D03*
%TO.P,A1,30*%
%TO.N,Net-(A1-Pad30)*%
X137191001Y-312695001D03*
%TO.P,A1,15*%
%TO.N,Net-(A1-Pad15)*%
X121951001Y-348255001D03*
%TO.P,A1,16*%
%TO.N,Net-(A1-Pad16)*%
X137191001Y-348255001D03*
%TD*%
D13*
%TO.P,GND,1*%
%TO.N,Net-(A1-Pad29)*%
X111506000Y-304800000D03*
D14*
%TO.P,GND,2*%
%TO.N,Net-(A1-Pad30)*%
X116586000Y-304800000D03*
%TD*%
D15*
%TO.N,Net-(A1-Pad29)*%
X126920000Y-309110000D03*
X119320000Y-306920000D03*
X130069001Y-315235001D03*
%TO.N,Net-(A1-Pad30)*%
X129540000Y-306324000D03*
%TD*%
D16*
%TO.N,Net-(A1-Pad19)*%
X137191001Y-340635001D02*
X138959001Y-340635001D01*
%TO.N,Net-(A1-Pad29)*%
X121510000Y-309110000D02*
X119320000Y-306920000D01*
X126920000Y-309110000D02*
X121510000Y-309110000D01*
X121951001Y-320315001D02*
X126216999Y-320315001D01*
X126216999Y-320315001D02*
X129794000Y-316738000D01*
X129794000Y-315510002D02*
X130069001Y-315235001D01*
X129794000Y-316738000D02*
X129794000Y-315510002D01*
%TO.N,Net-(A1-Pad7)*%
X121951001Y-327935001D02*
X120152000Y-326136000D01*
X120152000Y-326136000D02*
X120152000Y-315732000D01*
X116840000Y-312420000D02*
X116586000Y-312420000D01*
X120152000Y-315732000D02*
X116840000Y-312420000D01*
%TO.N,Net-(A1-Pad9)*%
X121951001Y-333015001D02*
X120152000Y-331216000D01*
X120152000Y-331216000D02*
X119888000Y-331216000D01*
X119888000Y-331216000D02*
X118872000Y-330200000D01*
X118872000Y-330200000D02*
X118872000Y-323596000D01*
X118872000Y-323596000D02*
X117856000Y-322580000D01*
X117856000Y-322580000D02*
X117094000Y-322580000D01*
X116586000Y-322072000D02*
X116586000Y-320402856D01*
X117094000Y-322580000D02*
X116586000Y-322072000D01*
%TO.N,Net-(A1-Pad10)*%
X116650000Y-325174000D02*
X116650000Y-325130000D01*
X121951001Y-335555001D02*
X120152000Y-333756000D01*
X120152000Y-333756000D02*
X119888000Y-333756000D01*
X119888000Y-333756000D02*
X118364000Y-332232000D01*
X118364000Y-332232000D02*
X118364000Y-326898000D01*
X118364000Y-326898000D02*
X117856000Y-326390000D01*
X117856000Y-326390000D02*
X117094000Y-326390000D01*
X116586000Y-325882000D02*
X116586000Y-324394284D01*
X117094000Y-326390000D02*
X116586000Y-325882000D01*
%TO.N,Net-(A1-Pad11)*%
X116650000Y-327714000D02*
X116650000Y-327670000D01*
%TO.N,Net-(A1-Pad27)*%
X131318000Y-321056000D02*
X132058999Y-320315001D01*
X131318000Y-347726000D02*
X131318000Y-321056000D01*
X127000000Y-352044000D02*
X131318000Y-347726000D01*
X116078000Y-352044000D02*
X127000000Y-352044000D01*
X132058999Y-320315001D02*
X137191001Y-320315001D01*
X114046000Y-350012000D02*
X116078000Y-352044000D01*
X114046000Y-347472000D02*
X111506000Y-344932000D01*
X114046000Y-350012000D02*
X114046000Y-347472000D01*
%TO.N,Net-(A1-Pad12)*%
X121951001Y-340635001D02*
X118882000Y-337566000D01*
X118882000Y-337566000D02*
X118882000Y-335544000D01*
X118882000Y-335544000D02*
X117602000Y-334264000D01*
X117602000Y-334264000D02*
X116586000Y-334264000D01*
X116586000Y-334264000D02*
X116586000Y-332232000D01*
%TO.N,Net-(A1-Pad13)*%
X121951001Y-343175001D02*
X119401001Y-343175001D01*
X119401001Y-343175001D02*
X118364000Y-342138000D01*
X118364000Y-342138000D02*
X118364000Y-339344000D01*
X118364000Y-339344000D02*
X117348000Y-338328000D01*
X117348000Y-338328000D02*
X116840000Y-338328000D01*
X116586000Y-338074000D02*
X116586000Y-336296000D01*
X116840000Y-338328000D02*
X116586000Y-338074000D01*
%TO.N,Net-(A1-Pad30)*%
X116586000Y-304800000D02*
X125476000Y-304800000D01*
X127000000Y-306324000D02*
X129540000Y-306324000D01*
X125476000Y-304800000D02*
X127000000Y-306324000D01*
%TD*%
M02*
