M48
; DRILL file {KiCad (5.1.9)-1} date 04/30/23 12:58:12
; FORMAT={3:3/ absolute / metric / suppress leading zeros}
; #@! TF.CreationDate,2023-04-30T12:58:12+02:00
; #@! TF.GenerationSoftware,Kicad,Pcbnew,(5.1.9)-1
FMAT,2
METRIC,TZ
T1C0.400
T2C0.900
T3C1.000
%
G90
G05
T1
X119320Y-306920
X126920Y-309110
X129540Y-306324
X130069Y-315235
T2
X111506Y-324394
X111506Y-332232
X111506Y-340360
X111506Y-344932
X116586Y-324394
X116586Y-328168
X116586Y-332232
X116586Y-336296
X116586Y-340360
X116586Y-344932
T3
X111506Y-304800
X116586Y-304800
X121951Y-312695
X121951Y-315235
X121951Y-317775
X121951Y-320315
X121951Y-322855
X121951Y-325395
X121951Y-327935
X121951Y-330475
X121951Y-333015
X121951Y-335555
X121951Y-338095
X121951Y-340635
X121951Y-343175
X121951Y-345715
X121951Y-348255
X137191Y-312695
X137191Y-315235
X137191Y-317775
X137191Y-320315
X137191Y-322855
X137191Y-325395
X137191Y-327935
X137191Y-330475
X137191Y-333015
X137191Y-335555
X137191Y-338095
X137191Y-340635
X137191Y-343175
X137191Y-345715
X137191Y-348255
T0
M30
